<?xml version="1.0" encoding="utf-8"?>
<!-- Generator: Adobe Illustrator 24.0.0, SVG Export Plug-In . SVG Version: 6.00 Build 0)  -->
<svg version="1.1" id="Layer_1" xmlns="http://www.w3.org/2000/svg" xmlns:xlink="http://www.w3.org/1999/xlink" x="0px" y="0px"
	 viewBox="0 0 68 57" style="enable-background:new 0 0 68 57;" xml:space="preserve">
<style type="text/css">
	.st0{fill:#434242;}
	.st1{fill:#F9B350;}
	.st2{fill:#FFFFFF;}
</style>
<g>
	<g>
		<path class="st0" d="M59.5,3c3.31,0,6,2.69,6,6v39c0,3.31-2.69,6-6,6h-51c-3.31,0-6-2.69-6-6V9c0-3.31,2.69-6,6-6H59.5 M59.5,1
			h-51c-4.42,0-8,3.58-8,8v39c0,4.42,3.58,8,8,8h51c4.42,0,8-3.58,8-8V9C67.5,4.58,63.92,1,59.5,1L59.5,1z"/>
	</g>
	<g>
		<path class="st0" d="M56.5,15h-55c-0.55,0-1-0.45-1-1v0c0-0.55,0.45-1,1-1h55c0.55,0,1,0.45,1,1v0C57.5,14.55,57.05,15,56.5,15z"
			/>
	</g>
	<g>
		<circle class="st1" cx="34" cy="34.5" r="13.5"/>
		<path class="st0" d="M34,22c6.89,0,12.5,5.61,12.5,12.5S40.89,47,34,47s-12.5-5.61-12.5-12.5S27.11,22,34,22 M34,20
			c-8.01,0-14.5,6.49-14.5,14.5S25.99,49,34,49s14.5-6.49,14.5-14.5S42.01,20,34,20L34,20z"/>
	</g>
	<g>
		<circle class="st1" cx="9" cy="8.5" r="0.5"/>
		<path class="st0" d="M9,7C8.17,7,7.5,7.67,7.5,8.5S8.17,10,9,10s1.5-0.67,1.5-1.5S9.83,7,9,7L9,7z"/>
	</g>
	<g>
		<circle class="st1" cx="14" cy="8.5" r="0.5"/>
		<path class="st0" d="M14,7c-0.83,0-1.5,0.67-1.5,1.5S13.17,10,14,10s1.5-0.67,1.5-1.5S14.83,7,14,7L14,7z"/>
	</g>
	<g>
		<circle class="st1" cx="19" cy="8.5" r="0.5"/>
		<path class="st0" d="M19,7c-0.83,0-1.5,0.67-1.5,1.5S18.17,10,19,10s1.5-0.67,1.5-1.5S19.83,7,19,7L19,7z"/>
	</g>
	<g>
		<path class="st2" d="M30.54,40.17c0,0-0.04,0-0.04-0.04V28.94l9.05,5.56L30.54,40.17z"/>
		<path class="st0" d="M31.5,30.67l6.21,3.86L31.5,38.4V30.67 M30.54,27.9c-0.54,0-1.04,0.43-1.04,1.04v11.19
			c0,0.61,0.5,1.04,1.04,1.04c0.18,0,0.37-0.05,0.55-0.16l9-5.6c0.65-0.41,0.65-1.36,0-1.76l-9-5.6
			C30.91,27.95,30.72,27.9,30.54,27.9L30.54,27.9z"/>
	</g>
</g>
</svg>
