<?xml version="1.0" encoding="utf-8"?>
<!-- Generator: Adobe Illustrator 24.0.0, SVG Export Plug-In . SVG Version: 6.00 Build 0)  -->
<svg version="1.1" id="Layer_1" xmlns="http://www.w3.org/2000/svg" xmlns:xlink="http://www.w3.org/1999/xlink" x="0px" y="0px"
	 viewBox="0 0 73 63" style="enable-background:new 0 0 73 63;" xml:space="preserve">
<style type="text/css">
	.st0{fill:#434242;}
	.st1{clip-path:url(#SVGID_2_);}
	.st2{fill:#F9B350;}
</style>
<g>
	<g>
		<circle class="st0" cx="21.5" cy="25" r="1"/>
		<g>
			<path class="st0" d="M45.5,61L45.5,61c-0.55,0-1-0.45-1-1V3c0-0.55,0.45-1,1-1l0,0c0.55,0,1,0.45,1,1v57
				C46.5,60.55,46.05,61,45.5,61z"/>
			<path class="st0" d="M46.21,2.53L46.21,2.53C46.5,3,46.36,3.62,45.89,3.91L22.03,18.85c-0.47,0.29-1.09,0.15-1.38-0.32l0,0
				c-0.29-0.47-0.15-1.09,0.32-1.38L44.83,2.22C45.3,1.92,45.92,2.07,46.21,2.53z"/>
			<path class="st0" d="M46.21,60.47L46.21,60.47c0.29-0.47,0.15-1.09-0.32-1.38L22.03,44.15c-0.47-0.29-1.09-0.15-1.38,0.32l0,0
				c-0.29,0.47-0.15,1.09,0.32,1.38l23.86,14.93C45.3,61.08,45.92,60.93,46.21,60.47z"/>
		</g>
		<g>
			<path class="st0" d="M20.5,44h-13c-1.66,0-3-1.34-3-3V22c0-1.66,1.34-3,3-3h12h1v-2h-13c-2.76,0-5,2.24-5,5v19c0,2.76,2.24,5,5,5
				h15V25h-2V44z"/>
		</g>
		<rect x="18.5" y="17" class="st0" width="3" height="2"/>
	</g>
	<g>
		<defs>
			<path id="SVGID_1_" d="M17.5,44h-10c-1.66,0-3-1.34-3-3V22c0-1.66,1.34-3,3-3h10c1.66,0,3,1.34,3,3v19
				C20.5,42.66,19.16,44,17.5,44z"/>
		</defs>
		<clipPath id="SVGID_2_">
			<use xlink:href="#SVGID_1_"  style="overflow:visible;"/>
		</clipPath>
		<g class="st1">
			<path class="st2" d="M17.5,44H7.82c-2.38,0-4.32-1.93-4.32-4.32V22h5.27c4.82,0,8.73,3.91,8.73,8.73V44z"/>
		</g>
	</g>
	<path class="st2" d="M57.47,24.62L57.47,24.62c-0.07,0.31,0.02,0.61,0.22,0.85c1.24,1.44,2.01,4.38,2.01,6.54
		c0,2-0.66,4.83-1.76,6.23c-0.19,0.24-0.26,0.56-0.18,0.85l0,0c0.22,0.74,1.19,0.92,1.65,0.31c1.3-1.73,2.08-4.96,2.08-7.39
		c0-2.62-0.91-6-2.39-7.78C58.61,23.63,57.64,23.86,57.47,24.62z"/>
	<path class="st2" d="M63.31,17.19L63.31,17.19c-0.18,0.4-0.08,0.86,0.25,1.16c3.64,3.3,5.95,8.19,5.95,13.66
		c0,5.31-2.17,10.07-5.62,13.37c-0.32,0.3-0.41,0.77-0.22,1.16l0,0c0.3,0.61,1.1,0.74,1.59,0.28c3.83-3.66,6.25-8.93,6.25-14.8
		c0-6.05-2.57-11.47-6.61-15.13C64.39,16.41,63.59,16.57,63.31,17.19z"/>
</g>
</svg>
