<?xml version="1.0" encoding="utf-8"?>
<!-- Generator: Adobe Illustrator 24.0.0, SVG Export Plug-In . SVG Version: 6.00 Build 0)  -->
<svg version="1.1" id="Layer_1" xmlns="http://www.w3.org/2000/svg" xmlns:xlink="http://www.w3.org/1999/xlink" x="0px" y="0px"
	 viewBox="0 0 79 59" style="enable-background:new 0 0 79 59;" xml:space="preserve">
<style type="text/css">
	.st0{fill:#434242;}
	.st1{fill:#FFFFFF;}
	.st2{fill:#F9B350;}
	.st3{clip-path:url(#SVGID_2_);}
</style>
<g>
	<g>
		<g>
			<path class="st0" d="M27.69,45.22v10h10v-10H27.69z M35.69,53.22h-6v-6h6V53.22z"/>
		</g>
	</g>
	<g>
		<path class="st0" d="M42.69,55.22h-20c-0.55,0-1-0.45-1-1v0c0-0.55,0.45-1,1-1h20c0.55,0,1,0.45,1,1v0
			C43.69,54.78,43.24,55.22,42.69,55.22z"/>
	</g>
	<g>
		<g>
			<path class="st1" d="M8.69,46.22c-3.86,0-7-3.14-7-7v-30c0-3.86,3.14-7,7-7h48c3.86,0,7,3.14,7,7v11h-17v26H8.69z"/>
			<g>
				<path class="st0" d="M56.69,3.22c3.31,0,6,2.69,6,6v10h-15h-2v2v24h-37c-3.31,0-6-2.69-6-6v-30c0-3.31,2.69-6,6-6H56.69
					 M56.69,1.22h-48c-4.42,0-8,3.58-8,8v30c0,4.42,3.58,8,8,8h48c2.03,0,3.87-0.76,5.28-2H47.69v-24h17v-12
					C64.69,4.8,61.11,1.22,56.69,1.22L56.69,1.22z"/>
			</g>
		</g>
		<g>
			<path class="st0" d="M63.69,20.22c-0.55,0-1,0.45-1,1s0.45,1,1,1c0.55,0,1-0.45,1-1S64.24,20.22,63.69,20.22L63.69,20.22z"/>
		</g>
		<g>
			<path class="st1" d="M56.69,45.22h-48c-3.31,0-6-2.69-6-6v-30c0-3.31,2.69-6,6-6h48c3.31,0,6,2.69,6,6v30
				C62.69,42.54,60,45.22,56.69,45.22z"/>
		</g>
	</g>
	<g>
		<path class="st1" d="M49.69,57.22c-2.76,0-5-2.24-5-5v-20c0-2.76,2.24-5,5-5h23c2.76,0,5,2.24,5,5v20c0,2.76-2.24,5-5,5H49.69z"/>
		<path class="st0" d="M72.69,28.22c2.21,0,4,1.79,4,4v20c0,2.21-1.79,4-4,4h-23c-2.21,0-4-1.79-4-4v-20c0-2.21,1.79-4,4-4H72.69
			 M72.69,26.22h-23c-3.31,0-6,2.69-6,6v20c0,3.31,2.69,6,6,6h23c3.31,0,6-2.69,6-6v-20C78.69,28.91,76,26.22,72.69,26.22
			L72.69,26.22z"/>
	</g>
	<circle class="st2" cx="69.19" cy="35.72" r="3.5"/>
	<g>
		<defs>
			<path id="SVGID_1_" d="M72.69,58.22h-23c-3.31,0-6-2.69-6-6v-20c0-3.31,2.69-6,6-6h23c3.31,0,6,2.69,6,6v20
				C78.69,55.54,76,58.22,72.69,58.22z"/>
		</defs>
		<clipPath id="SVGID_2_">
			<use xlink:href="#SVGID_1_"  style="overflow:visible;"/>
		</clipPath>
		<g class="st3">
			<path class="st2" d="M43.51,52.06l9.96-10.85c0.56-0.61,1.51-0.65,2.12-0.09l13.54,12.42c0.61,0.56,0.65,1.51,0.09,2.12
				L56.45,69.57c-0.56,0.61-1.51,0.65-2.12,0.09L40.79,57.24c-0.61-0.56-0.65-1.51-0.09-2.12L43.51,52.06"/>
			<path class="st2" d="M66.33,72.66L52.79,60.24c-0.61-0.56-0.65-1.51-0.09-2.12l12.97-14.13c0.56-0.61,1.51-0.65,2.12-0.09
				l13.54,12.42c0.61,0.56,0.65,1.51,0.09,2.12L68.45,72.57C67.89,73.18,66.94,73.22,66.33,72.66z"/>
		</g>
	</g>
	<g>
		<path class="st0" d="M72.69,28.22c2.21,0,4,1.79,4,4v20c0,2.21-1.79,4-4,4h-23c-2.21,0-4-1.79-4-4v-20c0-2.21,1.79-4,4-4H72.69
			 M72.69,26.22h-23c-3.31,0-6,2.69-6,6v20c0,3.31,2.69,6,6,6h23c3.31,0,6-2.69,6-6v-20C78.69,28.91,76,26.22,72.69,26.22
			L72.69,26.22z"/>
	</g>
</g>
</svg>
