<?xml version="1.0" encoding="utf-8"?>
<!-- Generator: Adobe Illustrator 24.0.0, SVG Export Plug-In . SVG Version: 6.00 Build 0)  -->
<svg version="1.1" id="Layer_1" xmlns="http://www.w3.org/2000/svg" xmlns:xlink="http://www.w3.org/1999/xlink" x="0px" y="0px"
	 viewBox="0 0 59 55" style="enable-background:new 0 0 59 55;" xml:space="preserve">
<style type="text/css">
	.st0{fill:#434242;}
	.st1{clip-path:url(#SVGID_2_);fill:#F9B350;}
</style>
<g>
	<g>
		<g>
			<path class="st0" d="M31.36,14.07L31.36,14.07c-0.55,0-1-0.45-1-1v-8c0-0.55,0.45-1,1-1h0c0.55,0,1,0.45,1,1v8
				C32.36,13.62,31.91,14.07,31.36,14.07z"/>
			<path class="st0" d="M39.36,14.07h-8c-0.55,0-1-0.45-1-1v0c0-0.55,0.45-1,1-1h8c0.55,0,1,0.45,1,1v0
				C40.36,13.62,39.91,14.07,39.36,14.07z"/>
			<path class="st0" d="M25.36,21.07h-16c-0.55,0-1-0.45-1-1v0c0-0.55,0.45-1,1-1h16c0.55,0,1,0.45,1,1v0
				C26.36,20.62,25.91,21.07,25.36,21.07z"/>
			<path class="st0" d="M20.36,27.07h-11c-0.55,0-1-0.45-1-1v0c0-0.55,0.45-1,1-1h11c0.55,0,1,0.45,1,1v0
				C21.36,26.62,20.91,27.07,20.36,27.07z"/>
			<path class="st0" d="M44.11,12.32L44.11,12.32c-0.39,0.39-1.02,0.39-1.41,0L32.11,1.73c-0.39-0.39-0.39-1.02,0-1.41v0
				c0.39-0.39,1.02-0.39,1.41,0l10.59,10.59C44.5,11.3,44.5,11.93,44.11,12.32z"/>
			<g>
				<polygon class="st0" points="44.36,25.07 44.36,11.71 42.36,9.71 42.36,25.07 				"/>
				<path class="st0" d="M42.36,41.07v6c0,3.31-2.69,6-6,6h-28c-3.31,0-6-2.69-6-6v-39c0-3.31,2.69-6,6-6h26.36l-2-2H8.36
					c-4.42,0-8,3.58-8,8v39c0,4.42,3.58,8,8,8h28c4.42,0,8-3.58,8-8v-6H42.36z"/>
			</g>
		</g>
		<circle class="st0" cx="43.36" cy="41.07" r="1"/>
	</g>
	<g>
		<defs>
			<path id="SVGID_1_" d="M28.26,40.84v-5.65l21.96-21.75c0,0,3.09-2.63,5.61,0c2.52,2.63,0.52,6.63,0.52,6.63l-21.5,21.57h-6.57
				L28.26,40.84z"/>
		</defs>
		<clipPath id="SVGID_2_">
			<use xlink:href="#SVGID_1_"  style="overflow:visible;"/>
		</clipPath>
		
			<rect x="37.7" y="8.12" transform="matrix(0.7003 0.7139 -0.7139 0.7003 32.4191 -22.012)" class="st1" width="9.45" height="38.98"/>
	</g>
	<g>
		<path class="st0" d="M56.76,13.12l-0.05-0.05c-2.13-2.12-5.57-2.11-7.69,0.02L27.63,34.57l1.24,1.24l21.48-21.57
			c1.44-1.45,3.79-1.45,5.24-0.01l0.02,0.02c1.45,1.44,1.45,3.79,0.01,5.24L34.14,41.05l1.24,1.24l21.39-21.48
			C58.89,18.68,58.88,15.24,56.76,13.12z"/>
		
			<rect x="47.03" y="17.7" transform="matrix(0.7086 0.7056 -0.7056 0.7086 28.1079 -30.9109)" class="st0" width="8.9" height="1.75"/>
		<path class="st0" d="M28.25,42.51l-0.07,0c-0.46-0.01-0.83-0.39-0.82-0.86l0.12-6.62c0.01-0.46,0.39-0.83,0.86-0.82l0.07,0
			c0.46,0.01,0.83,0.39,0.82,0.86l-0.12,6.62C29.1,42.15,28.71,42.52,28.25,42.51z"/>
		<path class="st0" d="M27.44,41.7l0,0.07c0.01,0.46,0.4,0.83,0.86,0.82l6.62-0.15c0.46-0.01,0.83-0.4,0.82-0.86l0-0.07
			c-0.01-0.46-0.4-0.83-0.86-0.82l-6.62,0.15C27.8,40.85,27.43,41.24,27.44,41.7z"/>
	</g>
</g>
</svg>
